<svg xmlns="http://www.w3.org/2000/svg" xmlns:xlink="http://www.w3.org/1999/xlink" xmlns:lucid="lucid" width="1345.99" height="1481.94"><g transform="translate(-263.82036465501403 -69.53420662792286)" lucid:page-tab-id="0_0"><path d="M0 0h1608.32v2081.35H0z" fill-opacity="0"/><path d="M316.67 697.8a8 8 0 0 1 8-8h471.5a8 8 0 0 1 8 8v423.63a8 8 0 0 1-8 8h-471.5a8 8 0 0 1-8-8z" stroke="#333" fill="#fff0fb"/><path d="M283.82 233.78V197.2a8 8 0 0 1 8-8h654.25v44.58zM946.07 189.2h312a8 8 0 0 1 8 8v36.58h-320z" stroke="#b2b2b2" stroke-width="2" fill="#979ea8"/><path d="M946.07 1371.8H291.82a8 8 0 0 1-8-8V233.78h662.25z" stroke="#b2b2b2" stroke-width="2" fill="none"/><path d="M1266.07 233.78V1363.8a8 8 0 0 1-8 8h-312V233.78z" stroke="#b2b2b2" stroke-width="2" fill="none"/><use xlink:href="#a" transform="matrix(1,0,0,1,283.82036465501403,189.21357643667602) translate(272.80229279925305 27.428553840762426)"/><use xlink:href="#b" transform="matrix(1,0,0,1,946.0678821833801,189.21357643667602) translate(59.99142831452909 27.428553840762426)"/><use xlink:href="#c" transform="matrix(1,0,0,1,946.0678821833801,189.21357643667602) translate(163.9017717906036 27.428553840762426)"/><path d="M593.9 265.7c0 9.1-7.7 16.47-17.2 16.47-9.52 0-17.22-7.38-17.22-16.48 0-9.1 7.7-16.5 17.2-16.5s17.2 7.4 17.2 16.5z" stroke="#000"/><path d="M508.2 334.3c-6.36 0-11.5 5.17-11.5 11.53v34.55c0 6.36 5.14 11.52 11.5 11.52h136.97c6.36 0 11.52-5.16 11.52-11.52v-34.55c0-6.36-5.17-11.52-11.53-11.52z" stroke="#000" stroke-opacity="0" fill="#3fb8b9"/><use xlink:href="#d" transform="matrix(1,0,0,1,504.6856381462745,342.309223177564) translate(41.640745161484226 16.2216426595409)"/><use xlink:href="#e" transform="matrix(1,0,0,1,504.6856381462745,342.309223177564) translate(26.48928031628803 40.554106648852255)"/><path d="M573.2 448.13a4.84 4.84 0 0 1 6.96 0l15.75 16.26a5.16 5.16 0 0 1 0 7.17l-15.74 16.26a4.84 4.84 0 0 1-6.95 0l-15.74-16.26a5.16 5.16 0 0 1 0-7.18z" stroke="#0c7c7d" stroke-width="4" fill="#fff"/><path d="M359.57 712.14c-10.67 0-19.32 8.65-19.32 19.32v57.96c0 10.67 8.65 19.32 19.32 19.32h137.2c10.68 0 19.33-8.65 19.33-19.32v-57.96c0-10.67-8.65-19.32-19.32-19.32z" stroke="#000" stroke-opacity="0" fill="#3fb8b9"/><use xlink:href="#f" transform="matrix(1,0,0,1,348.24639383055944,720.142186402403) translate(16.40890776867475 32.38917867022955)"/><use xlink:href="#g" transform="matrix(1,0,0,1,348.24639383055944,720.142186402403) translate(28.265351448651685 56.721642659540905)"/><use xlink:href="#h" transform="matrix(1,0,0,1,348.24639383055944,720.142186402403) translate(100.24889075036442 56.721642659540905)"/><path d="M576.7 283.18v34.74" stroke="#333" fill="none"/><path d="M576.7 282.68l.5-.07v.6h-1v-.6z" stroke="#333" stroke-width=".05" fill="#333"/><path d="M576.7 332.7l-4.65-14.28h9.27z" stroke="#333" fill="#333"/><path d="M349.6 97.53a8 8 0 0 1 8-8h836.76a8 8 0 0 1 8 8v60.3a8 8 0 0 1-8 8H357.6a8 8 0 0 1-8-8z" stroke="#000" stroke-opacity="0" stroke-width="2" fill="#fff" fill-opacity="0"/><use xlink:href="#i" transform="matrix(1,0,0,1,353.6102304145055,93.53420662792286) translate(181.10567901234572 38.75152777777778)"/><use xlink:href="#j" transform="matrix(1,0,0,1,353.6102304145055,93.53420662792286) translate(282.8624691358025 38.75152777777778)"/><use xlink:href="#k" transform="matrix(1,0,0,1,353.6102304145055,93.53420662792286) translate(394.88962962962967 38.75152777777778)"/><use xlink:href="#l" transform="matrix(1,0,0,1,353.6102304145055,93.53420662792286) translate(436.99086419753087 38.75152777777778)"/><use xlink:href="#m" transform="matrix(1,0,0,1,353.6102304145055,93.53420662792286) translate(553.3883950617284 38.75152777777778)"/><path d="M486.56 163.34h589.8M486.58 163.34h-1.02M1076.34 163.34h1.03" stroke="#a9afb8" stroke-width="2" fill="none"/><path d="M348.17 144.84a8 8 0 0 1 8-8h837.7a8 8 0 0 1 8 8v2.84a8 8 0 0 1-8 8h-837.7a8 8 0 0 1-8-8z" stroke="#000" stroke-opacity="0" stroke-width="2" fill="#fff" fill-opacity="0"/><use xlink:href="#n" transform="matrix(1,0,0,1,352.1741514727079,140.83760073709186) translate(320.2769238683128 14.917037037037037)"/><use xlink:href="#o" transform="matrix(1,0,0,1,352.1741514727079,140.83760073709186) translate(371.26457818930044 14.917037037037037)"/><use xlink:href="#p" transform="matrix(1,0,0,1,352.1741514727079,140.83760073709186) translate(435.806450617284 14.917037037037037)"/><use xlink:href="#q" transform="matrix(1,0,0,1,352.1741514727079,140.83760073709186) translate(448.2559362139918 14.917037037037037)"/><use xlink:href="#r" transform="matrix(1,0,0,1,352.1741514727079,140.83760073709186) translate(481.35542181069957 14.917037037037037)"/><use xlink:href="#s" transform="matrix(1,0,0,1,352.1741514727079,140.83760073709186) translate(498.35130658436213 14.917037037037037)"/><path d="M694.32 468.48h-94.45v-1h94.45zm324.9 0H854.4v-1h164.8z" stroke="#000" stroke-width=".05"/><path d="M599.88 468.48h-.55l.04-.5-.04-.5h.55z"/><path d="M599.9 468.5h-.6l.05-.52-.04-.52h.6zm-.54-1l.04.48-.04.48h.5v-.95z" stroke="#000" stroke-width=".05"/><path d="M1033.97 467.98l-14.26 4.64v-9.27z"/><path d="M1035.6 467.98l-16.4 5.33v-10.64zm-15.4 3.95l12.16-3.95-12.15-3.95z" stroke="#000" stroke-width=".05"/><use xlink:href="#t" transform="matrix(1,0,0,1,694.3222094619491,456.59292326811936) translate(0.0049999999999954525 15.184873926271615)"/><use xlink:href="#u" transform="matrix(1,0,0,1,694.3222094619491,456.59292326811936) translate(81.09644478682549 15.184873926271615)"/><path d="M1047.1 439.2c-6.35 0-11.5 5.14-11.5 11.5v34.56c0 6.36 5.15 11.52 11.5 11.52h136.97c6.36 0 11.52-5.16 11.52-11.52V450.7c0-6.36-5.17-11.5-11.53-11.5z" stroke="#000" stroke-opacity="0" fill="#0c7c7d"/><use xlink:href="#v" transform="matrix(1,0,0,1,1043.591484000226,447.1872111903682) translate(36.00823034914364 25.055410664885226)"/><path d="M1115.6 497.28v64.66a5 5 0 0 1-5 5H673.06" stroke="#000" fill="none"/><path d="M1116.1 497.3h-1v-.52h1z" stroke="#000" stroke-width=".05"/><path d="M658.3 566.94l14.27-4.63v9.28z" stroke="#000"/><path d="M512.7 526.94c-8.85 0-16 7.17-16 16v48c0 8.84 7.15 16 16 16h128c8.82 0 16-7.16 16-16v-48c0-8.83-7.18-16-16-16z" stroke="#000" stroke-opacity="0" fill="#0c7c7d"/><use xlink:href="#w" transform="matrix(1,0,0,1,504.6856381462745,534.9445291577885) translate(3.451263640706756 23.35637650110488)"/><use xlink:href="#x" transform="matrix(1,0,0,1,504.6856381462745,534.9445291577885) translate(61.015395136820786 23.35637650110488)"/><use xlink:href="#y" transform="matrix(1,0,0,1,504.6856381462745,534.9445291577885) translate(-1.7409129749489978 49.28724699779025)"/><path d="M576.7 392.4v35.87" stroke="#000" fill="none"/><path d="M577.2 392.4h-1v-.5h1z" stroke="#000" stroke-width=".05"/><path d="M576.7 443.03l-4.65-14.26h9.27z" stroke="#000"/><path d="M1115.6 687.44v16.62" stroke="#000" fill="none"/><path d="M1116.1 687.46h-1v-.52h1z" stroke="#000" stroke-width=".05"/><path d="M1115.6 718.82l-4.64-14.26h9.27z" stroke="#000"/><path d="M1115.6 497.28v93.28" stroke="#000" fill="none"/><path d="M1116.1 497.3h-1v-.52h1z" stroke="#000" stroke-width=".05"/><path d="M1115.6 605.33l-4.64-14.27h9.27z" stroke="#000"/><path d="M1051.6 720.44c-8.85 0-16 7.16-16 16v48c0 8.84 7.15 16 16 16h128c8.83 0 16-7.16 16-16v-48c0-8.84-7.17-16-16-16z" stroke="#000" stroke-opacity="0" fill="#0c7c7d"/><use xlink:href="#z" transform="matrix(1,0,0,1,1043.591484000226,728.439607648489) translate(32.44341745991747 23.35637650110488)"/><use xlink:href="#A" transform="matrix(1,0,0,1,1043.591484000226,728.439607648489) translate(38.29587087062771 49.28724699779025)"/><path d="M428.17 809.24v43.35" stroke="#000" fill="none"/><path d="M428.67 809.25h-1v-.5h1z" stroke="#000" stroke-width=".05"/><path d="M428.17 867.35l-4.63-14.26h9.27z" stroke="#000"/><path d="M351.45 868.97c-10.45 0-18.92 8.47-18.92 18.92v56.76c0 10.45 8.47 18.92 18.92 18.92H504.9c10.45 0 18.92-8.47 18.92-18.92V887.9c0-10.46-8.47-18.93-18.92-18.93z" stroke="#000" stroke-opacity="0" fill="#3fb8b9"/><use xlink:href="#B" transform="matrix(1,0,0,1,340.52793840219715,876.9733660602483) translate(2.3140795508834344 30.85637650110488)"/><use xlink:href="#C" transform="matrix(1,0,0,1,340.52793840219715,876.9733660602483) translate(102.97627821509953 30.85637650110488)"/><use xlink:href="#D" transform="matrix(1,0,0,1,340.52793840219715,876.9733660602483) translate(18.490861029718403 56.78724699779025)"/><use xlink:href="#E" transform="matrix(1,0,0,1,340.52793840219715,876.9733660602483) translate(58.04744356980093 56.78724699779025)"/><use xlink:href="#F" transform="matrix(1,0,0,1,340.52793840219715,876.9733660602483) translate(89.2605284269222 56.78724699779025)"/><path d="M428.17 964.08v43.35" stroke="#000" fill="none"/><path d="M428.67 964.1h-1v-.52h1z" stroke="#000" stroke-width=".05"/><path d="M428.17 1022.2l-4.63-14.27h9.27z" stroke="#000"/><path d="M364.17 1023.82c-8.83 0-16 7.16-16 16v48c0 8.83 7.17 16 16 16h128c8.84 0 16-7.17 16-16v-48c0-8.84-7.16-16-16-16z" stroke="#000" stroke-opacity="0" fill="#3fb8b9"/><use xlink:href="#G" transform="matrix(1,0,0,1,356.1741514727079,1031.81649144426) translate(5.372068862683449 23.35637650110488)"/><use xlink:href="#H" transform="matrix(1,0,0,1,356.1741514727079,1031.81649144426) translate(97.81082017031181 23.35637650110488)"/><use xlink:href="#I" transform="matrix(1,0,0,1,356.1741514727079,1031.81649144426) translate(24.670158827230537 49.28724699779025)"/><path d="M867.93 743.98a5 5 0 0 1 7.07 0l12.93 12.92a5 5 0 0 1 0 7.08L875 776.9a5 5 0 0 1-7.07 0L855 763.98a5 5 0 0 1 0-7.08z" stroke="#0c7c7d" stroke-width="4" fill="#fff"/><path d="M871.96 796.76l-.06 262.9-.2.86-.34.8-.45.73-.55.66-.66.57-.74.45-.8.33-.84.2-.84.07h-357.8v-1h357.76l.72-.06.7-.17.64-.28.6-.36.54-.46.46-.54.37-.6.27-.65.16-.66.06-262.78z" stroke="#000" stroke-width=".05"/><path d="M508.7 1064.32h-.53v-1h.52z"/><path d="M508.7 1064.34h-.55v-1.05h.56zm-.5-1v.95h.46v-.96z" stroke="#000" stroke-width=".05"/><path d="M876.1 796.26h-9.27l4.63-14.27z"/><path d="M876.78 796.76h-10.64l5.32-16.4zm-9.27-1h7.9l-3.94-12.15zM587.24 916.76l-47.04.02v-1l47.04-.02zm263.8-155.82h-89.17l-.72.06-.7.16-.64.27-.6.37-.53.46-.46.54-.35.6-.27.65-.16.67-.07 146.58-.06.84-.2.84-.34.8-.45.73-.56.67-.65.56-.75.45-.8.33-.85.22H721v-1h31.58l.66-.16.66-.28.6-.36.54-.46.45-.54.36-.6.27-.65.17-.7.05-.7.07-146.67.2-.86.33-.8.45-.73.56-.65.66-.56.74-.46.8-.33.83-.2.83-.06h89.2z" stroke="#000" stroke-width=".05"/><path d="M851.53 760.44l.04.5H851v-1h.57z"/><path d="M851.55 760.44l.04.52h-.6v-1.05h.6zm-.5-.48v.95h.5l-.05-.46.04-.48z" stroke="#000" stroke-width=".05"/><path d="M539.7 920.9l-14.26-4.62 14.26-4.64z"/><path d="M540.2 921.6l-16.38-5.32 16.38-5.33zm-13.14-5.32l12.14 3.94v-7.9z" stroke="#000" stroke-width=".05"/><use xlink:href="#J" transform="matrix(1,0,0,1,587.243499999901,904.8881047247136) translate(0.0049999999999954525 15.184873926271615)"/><use xlink:href="#u" transform="matrix(1,0,0,1,587.243499999901,904.8881047247136) translate(54.786541699292385 15.184873926271615)"/><path d="M1035.1 760.44H907.77" stroke="#000" fill="none"/><path d="M1035.6 760.94h-.52v-1h.5z" stroke="#000" stroke-width=".05"/><path d="M893 760.44l14.28-4.64v9.27z" stroke="#000"/><path d="M1051.6 606.94c-8.85 0-16 7.17-16 16v48c0 8.84 7.15 16 16 16h128c8.83 0 16-7.16 16-16v-48c0-8.83-7.17-16-16-16z" stroke="#000" stroke-opacity="0" fill="#0c7c7d"/><use xlink:href="#K" transform="matrix(1,0,0,1,1043.591484000226,614.9445291577885) translate(50.841129976662984 36.32181174944756)"/><path d="M1035.1 760.44h-34.5a5 5 0 0 1-5-5v-104.5a5 5 0 0 1 5-5h18.6" stroke="#000" fill="none"/><path d="M1035.6 760.94h-.52v-1h.5z" stroke="#000" stroke-width=".05"/><path d="M1033.97 645.94l-14.26 4.63v-9.27z" stroke="#000"/><path d="M574.77 760.94H532.5v-1h42.27zm276.26 0h-116.2v-1h116.2z" stroke="#000" stroke-width=".05"/><path d="M851.53 760.44l.04.5H851v-1h.57z"/><path d="M851.55 760.44l.04.52h-.6v-1.05h.6zm-.5-.48v.95h.5l-.05-.46.04-.48z" stroke="#000" stroke-width=".05"/><path d="M532 765.07l-14.28-4.63L532 755.8z"/><path d="M532.5 765.76l-16.4-5.32 16.4-5.32zm-13.16-5.32l12.15 3.95v-7.9z" stroke="#000" stroke-width=".05"/><use xlink:href="#t" transform="matrix(1,0,0,1,574.7680360389794,749.0509522037853) translate(0.0049999999999954525 15.184873926271615)"/><use xlink:href="#u" transform="matrix(1,0,0,1,574.7680360389794,749.0509522037853) translate(81.09644478682549 15.184873926271615)"/><path d="M443.25 468.48H433.2l-.73.06-.7.16-.64.27-.6.37-.54.46-.47.54-.36.6-.27.65-.16.66-.07 223.5h-1l.07-223.62.2-.86.33-.8.45-.73.56-.66.66-.57.74-.45.8-.33.83-.2.85-.07h10.1zm110.25 0h-26v-1h26z" stroke="#000" stroke-width=".05"/><path d="M554 467.98l.04.5h-.55v-1h.54z"/><path d="M554.03 467.98l.04.53h-.6v-1.04h.6zm-.52-.47v.96h.5l-.02-.48.03-.47z" stroke="#000" stroke-width=".05"/><path d="M428.17 710.52l-4.63-14.26h9.27z"/><path d="M428.17 712.14l-5.32-16.38h10.65zm-3.94-15.38l3.94 12.15 3.95-12.14z" stroke="#000" stroke-width=".05"/><g><use xlink:href="#L" transform="matrix(1,0,0,1,443.24600375046464,456.5929234398032) translate(0.005000000000002558 15.184873926271619)"/><use xlink:href="#M" transform="matrix(1,0,0,1,443.24600375046464,456.5929234398032) translate(29.425693232151264 15.184873926271619)"/></g><path d="M428.17 1104.32v37.8a5 5 0 0 0 5 5h150a5 5 0 0 1 5 5v14.08" stroke="#000" fill="none"/><path d="M428.67 1104.33h-1v-.5h1z" stroke="#000" stroke-width=".05"/><path d="M588.17 1180.97l-4.63-14.27h9.27z" stroke="#000"/><path d="M524.17 1182.58c-8.83 0-16 7.17-16 16v48c0 8.84 7.17 16 16 16h128c8.84 0 16-7.16 16-16v-48c0-8.83-7.16-16-16-16z" stroke="#000" stroke-opacity="0" fill="#3fb8b9"/><g><use xlink:href="#N" transform="matrix(1,0,0,1,516.1741514727079,1190.584852729225) translate(40.846940306065505 23.35637650110488)"/><use xlink:href="#O" transform="matrix(1,0,0,1,516.1741514727079,1190.584852729225) translate(23.499668145088492 49.28724699779025)"/></g><path d="M564.16 660.14a8 8 0 0 1 8-8h224a8 8 0 0 1 8 8v44a8 8 0 0 1-8 8h-224a8 8 0 0 1-8-8z" stroke="#000" stroke-opacity="0" fill="#fff" fill-opacity="0"/><g><use xlink:href="#P" transform="matrix(1,0,0,1,569.157699855873,657.142186402403) translate(2.872995167110531 29.787246997790245)"/><use xlink:href="#Q" transform="matrix(1,0,0,1,569.157699855873,657.142186402403) translate(78.44467561925606 29.787246997790245)"/><use xlink:href="#R" transform="matrix(1,0,0,1,569.157699855873,657.142186402403) translate(179.10687428347214 29.787246997790245)"/></g><path d="M668.67 1222.58h350.54" stroke="#000" fill="none"/><path d="M668.7 1223.08h-.53v-1h.52z" stroke="#000" stroke-width=".05"/><path d="M1033.97 1222.58l-14.26 4.64v-9.27z" stroke="#000"/><path d="M1051.6 1182.58c-8.85 0-16 7.17-16 16v48c0 8.84 7.15 16 16 16h128c8.83 0 16-7.16 16-16v-48c0-8.83-7.17-16-16-16z" stroke="#000" stroke-opacity="0" fill="#0c7c7d"/><g><use xlink:href="#S" transform="matrix(1,0,0,1,1043.591484000226,1190.584852729225) translate(15.666384349214788 23.35637650110488)"/><use xlink:href="#T" transform="matrix(1,0,0,1,1043.591484000226,1190.584852729225) translate(61.225483207974484 23.35637650110488)"/><use xlink:href="#U" transform="matrix(1,0,0,1,1043.591484000226,1190.584852729225) translate(48.01994730688472 49.28724699779025)"/></g><path d="M1135.6 1344.5c0 11.04-8.96 20-20 20-11.05 0-20-8.96-20-20 0-11.05 8.95-20 20-20 11.04 0 20 8.95 20 20z" stroke="#000" fill-opacity="0"/><path d="M1127.6 1344.5c0 6.62-5.38 12-12 12-6.64 0-12-5.38-12-12 0-6.63 5.36-12 12-12 6.62 0 12 5.37 12 12z" stroke="#000"/><path d="M1115.6 1263.08v44.53" stroke="#000" fill="none"/><path d="M1116.1 1263.1h-1v-.52h1z" stroke="#000" stroke-width=".05"/><path d="M1115.6 1322.38l-4.64-14.27h9.27z" stroke="#000"/><path d="M1017.02 1442.75h572.8v88.72H1017z" fill="none"/><g><use xlink:href="#V" transform="matrix(1,0,0,1,1017.0229733471336,1442.7535203296547) translate(145.35802469135803 35.611111111111114)"/><use xlink:href="#W" transform="matrix(1,0,0,1,1017.0229733471336,1442.7535203296547) translate(188.50617283950618 35.611111111111114)"/><use xlink:href="#X" transform="matrix(1,0,0,1,1017.0229733471336,1442.7535203296547) translate(280.91358024691357 35.611111111111114)"/><use xlink:href="#Y" transform="matrix(1,0,0,1,1017.0229733471336,1442.7535203296547) translate(378.25925925925924 35.611111111111114)"/><use xlink:href="#Z" transform="matrix(1,0,0,1,1017.0229733471336,1442.7535203296547) translate(182.30246913580248 62.27777777777778)"/><use xlink:href="#aa" transform="matrix(1,0,0,1,1017.0229733471336,1442.7535203296547) translate(241.5 62.27777777777778)"/><use xlink:href="#ab" transform="matrix(1,0,0,1,1017.0229733471336,1442.7535203296547) translate(291.9320987654321 62.27777777777778)"/><use xlink:href="#ac" transform="matrix(1,0,0,1,1017.0229733471336,1442.7535203296547) translate(341.31481481481484 62.27777777777778)"/></g><defs><path fill="#333" d="M67-125c0 53 21 87 73 88 37 1 54-22 65-47l45 17C233-25 199 4 140 4 58 4 20-42 15-125 8-235 124-281 211-232c18 10 29 29 36 50l-46 12c-8-25-30-41-62-41-52 0-71 34-72 86" id="ad"/><path fill="#333" d="M110-194c64 0 96 36 96 99 0 64-35 99-97 99-61 0-95-36-95-99 0-62 34-99 96-99zm-1 164c35 0 45-28 45-65 0-40-10-65-43-65-34 0-45 26-45 65 0 36 10 65 43 65" id="ae"/><path fill="#333" d="M135-194c87-1 58 113 63 194h-50c-7-57 23-157-34-157-59 0-34 97-39 157H25l-1-190h47c2 12-1 28 3 38 12-26 28-41 61-42" id="af"/><path fill="#333" d="M115-3C79 11 28 4 28-45v-112H4v-33h27l15-45h31v45h36v33H77v99c-1 23 16 31 38 25v30" id="ag"/><path fill="#333" d="M135-150c-39-12-60 13-60 57V0H25l-1-190h47c2 13-1 29 3 40 6-28 27-53 61-41v41" id="ah"/><path fill="#333" d="M25 0v-261h50V0H25" id="ai"/><path fill="#333" d="M185-48c-13 30-37 53-82 52C43 2 14-33 14-96s30-98 90-98c62 0 83 45 84 108H66c0 31 8 55 39 56 18 0 30-7 34-22zm-45-69c5-46-57-63-70-21-2 6-4 13-4 21h74" id="aj"/><g id="a"><use transform="matrix(0.06845213667725593,0,0,0.06845213667725593,0,0)" xlink:href="#ad"/><use transform="matrix(0.06845213667725593,0,0,0.06845213667725593,17.729103399409286,0)" xlink:href="#ae"/><use transform="matrix(0.06845213667725593,0,0,0.06845213667725593,32.720121331728336,0)" xlink:href="#af"/><use transform="matrix(0.06845213667725593,0,0,0.06845213667725593,47.71113926404738,0)" xlink:href="#ag"/><use transform="matrix(0.06845213667725593,0,0,0.06845213667725593,55.85694352864084,0)" xlink:href="#ah"/><use transform="matrix(0.06845213667725593,0,0,0.06845213667725593,65.44024266345667,0)" xlink:href="#ae"/><use transform="matrix(0.06845213667725593,0,0,0.06845213667725593,80.43126059577573,0)" xlink:href="#ai"/><use transform="matrix(0.06845213667725593,0,0,0.06845213667725593,87.27647426350131,0)" xlink:href="#ai"/><use transform="matrix(0.06845213667725593,0,0,0.06845213667725593,94.1216879312269,0)" xlink:href="#aj"/><use transform="matrix(0.06845213667725593,0,0,0.06845213667725593,107.81211526667809,0)" xlink:href="#ah"/></g><path fill="#333" d="M169-182c-1-43-94-46-97-3 18 66 151 10 154 114 3 95-165 93-204 36-6-8-10-19-12-30l50-8c3 46 112 56 116 5-17-69-150-10-154-114-4-87 153-88 188-35 5 8 8 18 10 28" id="ak"/><path fill="#333" d="M190-63c-7 42-38 67-86 67-59 0-84-38-90-98-12-110 154-137 174-36l-49 2c-2-19-15-32-35-32-30 0-35 28-38 64-6 74 65 87 74 30" id="al"/><g id="b"><use transform="matrix(0.06845213667725593,0,0,0.06845213667725593,0,0)" xlink:href="#ak"/><use transform="matrix(0.06845213667725593,0,0,0.06845213667725593,16.428512802541423,0)" xlink:href="#aj"/><use transform="matrix(0.06845213667725593,0,0,0.06845213667725593,30.11894013799261,0)" xlink:href="#ai"/><use transform="matrix(0.06845213667725593,0,0,0.06845213667725593,36.964153805718205,0)" xlink:href="#aj"/><use transform="matrix(0.06845213667725593,0,0,0.06845213667725593,50.65458114116939,0)" xlink:href="#al"/><use transform="matrix(0.06845213667725593,0,0,0.06845213667725593,64.34500847662058,0)" xlink:href="#ag"/><use transform="matrix(0.06845213667725593,0,0,0.06845213667725593,72.49081274121403,0)" xlink:href="#ae"/><use transform="matrix(0.06845213667725593,0,0,0.06845213667725593,87.48183067353308,0)" xlink:href="#ah"/></g><path fill="#333" d="M275 0h-61l-44-196L126 0H64L0-248h53L97-49l45-199h58l43 199 44-199h52" id="am"/><path fill="#333" d="M133-34C117-15 103 5 69 4 32 3 11-16 11-54c-1-60 55-63 116-61 1-26-3-47-28-47-18 1-26 9-28 27l-52-2c7-38 36-58 82-57s74 22 75 68l1 82c-1 14 12 18 25 15v27c-30 8-71 5-69-32zm-48 3c29 0 43-24 42-57-32 0-66-3-65 30 0 17 8 27 23 27" id="an"/><path fill="#333" d="M114-157C55-157 80-60 75 0H25v-261h50l-1 109c12-26 28-41 61-42 86-1 58 113 63 194h-50c-7-57 23-157-34-157" id="ao"/><g id="c"><use transform="matrix(0.06845213667725593,0,0,0.06845213667725593,0,0)" xlink:href="#am"/><use transform="matrix(0.06845213667725593,0,0,0.06845213667725593,22.315396556785434,0)" xlink:href="#an"/><use transform="matrix(0.06845213667725593,0,0,0.06845213667725593,36.00582389223662,0)" xlink:href="#ag"/><use transform="matrix(0.06845213667725593,0,0,0.06845213667725593,44.15162815683007,0)" xlink:href="#al"/><use transform="matrix(0.06845213667725593,0,0,0.06845213667725593,57.84205549228126,0)" xlink:href="#ao"/><use transform="matrix(0.06845213667725593,0,0,0.06845213667725593,72.83307342460031,0)" xlink:href="#aj"/><use transform="matrix(0.06845213667725593,0,0,0.06845213667725593,86.5235007600515,0)" xlink:href="#ah"/></g><path fill="#fff" d="M212-179c-10-28-35-45-73-45-59 0-87 40-87 99 0 60 29 101 89 101 43 0 62-24 78-52l27 14C228-24 195 4 139 4 59 4 22-46 18-125c-6-104 99-153 187-111 19 9 31 26 39 46" id="ap"/><path fill="#fff" d="M114-163C36-179 61-72 57 0H25l-1-190h30c1 12-1 29 2 39 6-27 23-49 58-41v29" id="aq"/><path fill="#fff" d="M100-194c63 0 86 42 84 106H49c0 40 14 67 53 68 26 1 43-12 49-29l28 8c-11 28-37 45-77 45C44 4 14-33 15-96c1-61 26-98 85-98zm52 81c6-60-76-77-97-28-3 7-6 17-6 28h103" id="ar"/><path fill="#fff" d="M141-36C126-15 110 5 73 4 37 3 15-17 15-53c-1-64 63-63 125-63 3-35-9-54-41-54-24 1-41 7-42 31l-33-3c5-37 33-52 76-52 45 0 72 20 72 64v82c-1 20 7 32 28 27v20c-31 9-61-2-59-35zM48-53c0 20 12 33 32 33 41-3 63-29 60-74-43 2-92-5-92 41" id="as"/><path fill="#fff" d="M59-47c-2 24 18 29 38 22v24C64 9 27 4 27-40v-127H5v-23h24l9-43h21v43h35v23H59v120" id="at"/><g id="d"><use transform="matrix(0.0563251481234059,0,0,0.0563251481234059,0,0)" xlink:href="#ap"/><use transform="matrix(0.0563251481234059,0,0,0.0563251481234059,14.58821336396213,0)" xlink:href="#aq"/><use transform="matrix(0.0563251481234059,0,0,0.0563251481234059,21.29090599064743,0)" xlink:href="#ar"/><use transform="matrix(0.0563251481234059,0,0,0.0563251481234059,32.55593561532861,0)" xlink:href="#as"/><use transform="matrix(0.0563251481234059,0,0,0.0563251481234059,43.820965240009784,0)" xlink:href="#at"/><use transform="matrix(0.0563251481234059,0,0,0.0563251481234059,49.45348005235037,0)" xlink:href="#ar"/></g><path fill="#fff" d="M30-248c118-7 216 8 213 122C240-48 200 0 122 0H30v-248zM63-27c89 8 146-16 146-99s-60-101-146-95v194" id="au"/><path fill="#fff" d="M24-231v-30h32v30H24zM24 0v-190h32V0H24" id="av"/><path fill="#fff" d="M135-143c-3-34-86-38-87 0 15 53 115 12 119 90S17 21 10-45l28-5c4 36 97 45 98 0-10-56-113-15-118-90-4-57 82-63 122-42 12 7 21 19 24 35" id="aw"/><path fill="#fff" d="M84 4C-5 8 30-112 23-190h32v120c0 31 7 50 39 49 72-2 45-101 50-169h31l1 190h-30c-1-10 1-25-2-33-11 22-28 36-60 37" id="ax"/><path fill="#fff" d="M115-194c55 1 70 41 70 98S169 2 115 4C84 4 66-9 55-30l1 105H24l-1-265h31l2 30c10-21 28-34 59-34zm-8 174c40 0 45-34 45-75s-6-73-45-74c-42 0-51 32-51 76 0 43 10 73 51 73" id="ay"/><path fill="#fff" d="M100-194c62-1 85 37 85 99 1 63-27 99-86 99S16-35 15-95c0-66 28-99 85-99zM99-20c44 1 53-31 53-75 0-43-8-75-51-75s-53 32-53 75 10 74 51 75" id="az"/><path fill="#fff" d="M117-194c89-4 53 116 60 194h-32v-121c0-31-8-49-39-48C34-167 62-67 57 0H25l-1-190h30c1 10-1 24 2 32 11-22 29-35 61-36" id="aA"/><g id="e"><use transform="matrix(0.0563251481234059,0,0,0.0563251481234059,0,0)" xlink:href="#au"/><use transform="matrix(0.0563251481234059,0,0,0.0563251481234059,14.58821336396213,0)" xlink:href="#av"/><use transform="matrix(0.0563251481234059,0,0,0.0563251481234059,19.037900065711195,0)" xlink:href="#aw"/><use transform="matrix(0.0563251481234059,0,0,0.0563251481234059,29.17642672792426,0)" xlink:href="#aq"/><use transform="matrix(0.0563251481234059,0,0,0.0563251481234059,35.879119354609564,0)" xlink:href="#ax"/><use transform="matrix(0.0563251481234059,0,0,0.0563251481234059,47.14414897929075,0)" xlink:href="#ay"/><use transform="matrix(0.0563251481234059,0,0,0.0563251481234059,58.409178603971924,0)" xlink:href="#at"/><use transform="matrix(0.0563251481234059,0,0,0.0563251481234059,64.04169341631251,0)" xlink:href="#av"/><use transform="matrix(0.0563251481234059,0,0,0.0563251481234059,68.49138011806158,0)" xlink:href="#az"/><use transform="matrix(0.0563251481234059,0,0,0.0563251481234059,79.75640974274276,0)" xlink:href="#aA"/></g><path fill="#fff" d="M185-189c-5-48-123-54-124 2 14 75 158 14 163 119 3 78-121 87-175 55-17-10-28-26-33-46l33-7c5 56 141 63 141-1 0-78-155-14-162-118-5-82 145-84 179-34 5 7 8 16 11 25" id="aB"/><path fill="#fff" d="M24 0v-261h32V0H24" id="aC"/><path fill="#fff" d="M96-169c-40 0-48 33-48 73s9 75 48 75c24 0 41-14 43-38l32 2c-6 37-31 61-74 61-59 0-76-41-82-99-10-93 101-131 147-64 4 7 5 14 7 22l-32 3c-4-21-16-35-41-35" id="aD"/><path fill="#fff" d="M0 4l72-265h28L28 4H0" id="aE"/><path fill="#fff" d="M232-93c-1 65-40 97-104 97C67 4 28-28 28-90v-158h33c8 89-33 224 67 224 102 0 64-133 71-224h33v155" id="aF"/><path fill="#fff" d="M85-194c31 0 48 13 60 33l-1-100h32l1 261h-30c-2-10 0-23-3-31C134-8 116 4 85 4 32 4 16-35 15-94c0-66 23-100 70-100zm9 24c-40 0-46 34-46 75 0 40 6 74 45 74 42 0 51-32 51-76 0-42-9-74-50-73" id="aG"/><g id="f"><use transform="matrix(0.0563251481234059,0,0,0.0563251481234059,0,0)" xlink:href="#aB"/><use transform="matrix(0.0563251481234059,0,0,0.0563251481234059,13.518035549617416,0)" xlink:href="#ar"/><use transform="matrix(0.0563251481234059,0,0,0.0563251481234059,24.783065174298596,0)" xlink:href="#aC"/><use transform="matrix(0.0563251481234059,0,0,0.0563251481234059,29.23275187604766,0)" xlink:href="#ar"/><use transform="matrix(0.0563251481234059,0,0,0.0563251481234059,40.49778150072884,0)" xlink:href="#aD"/><use transform="matrix(0.0563251481234059,0,0,0.0563251481234059,50.6363081629419,0)" xlink:href="#at"/><use transform="matrix(0.0563251481234059,0,0,0.0563251481234059,56.26882297528249,0)" xlink:href="#aE"/><use transform="matrix(0.0563251481234059,0,0,0.0563251481234059,61.90133778762307,0)" xlink:href="#aF"/><use transform="matrix(0.0563251481234059,0,0,0.0563251481234059,76.4895511515852,0)" xlink:href="#ay"/><use transform="matrix(0.0563251481234059,0,0,0.0563251481234059,87.75458077626638,0)" xlink:href="#aG"/><use transform="matrix(0.0563251481234059,0,0,0.0563251481234059,99.01961040094756,0)" xlink:href="#as"/><use transform="matrix(0.0563251481234059,0,0,0.0563251481234059,110.28464002562873,0)" xlink:href="#at"/><use transform="matrix(0.0563251481234059,0,0,0.0563251481234059,115.91715483796932,0)" xlink:href="#ar"/></g><path fill="#fff" d="M127-220V0H93v-220H8v-28h204v28h-85" id="aH"/><path fill="#fff" d="M177-190C167-65 218 103 67 71c-23-6-38-20-44-43l32-5c15 47 100 32 89-28v-30C133-14 115 1 83 1 29 1 15-40 15-95c0-56 16-97 71-98 29-1 48 16 59 35 1-10 0-23 2-32h30zM94-22c36 0 50-32 50-73 0-42-14-75-50-75-39 0-46 34-46 75s6 73 46 73" id="aI"/><g id="g"><use transform="matrix(0.0563251481234059,0,0,0.0563251481234059,0,0)" xlink:href="#aH"/><use transform="matrix(0.0563251481234059,0,0,0.0563251481234059,10.082201514089656,0)" xlink:href="#as"/><use transform="matrix(0.0563251481234059,0,0,0.0563251481234059,21.347231138770837,0)" xlink:href="#aq"/><use transform="matrix(0.0563251481234059,0,0,0.0563251481234059,28.04992376545614,0)" xlink:href="#aI"/><use transform="matrix(0.0563251481234059,0,0,0.0563251481234059,39.31495339013732,0)" xlink:href="#ar"/><use transform="matrix(0.0563251481234059,0,0,0.0563251481234059,50.579983014818495,0)" xlink:href="#at"/><use transform="matrix(0.0563251481234059,0,0,0.0563251481234059,56.21249782715908,0)" xlink:href="#aw"/></g><path fill="#fff" d="M30 0v-248h33v221h125V0H30" id="aJ"/><g id="h"><use transform="matrix(0.0563251481234059,0,0,0.0563251481234059,0,0)" xlink:href="#aJ"/><use transform="matrix(0.0563251481234059,0,0,0.0563251481234059,11.26502962468118,0)" xlink:href="#av"/><use transform="matrix(0.0563251481234059,0,0,0.0563251481234059,15.714716326430247,0)" xlink:href="#aw"/><use transform="matrix(0.0563251481234059,0,0,0.0563251481234059,25.85324298864331,0)" xlink:href="#at"/></g><path fill="#a9afb8" d="M199 0l-22-63H83L61 0H9l90-248h61L250 0h-51zm-33-102l-36-108c-10 38-24 72-36 108h72" id="aK"/><path fill="#a9afb8" d="M190-63c-7 42-38 67-86 67-59 0-84-38-90-98-12-110 154-137 174-36l-49 2c-2-19-15-32-35-32-30 0-35 28-38 64-6 74 65 87 74 30" id="aL"/><path fill="#a9afb8" d="M115-3C79 11 28 4 28-45v-112H4v-33h27l15-45h31v45h36v33H77v99c-1 23 16 31 38 25v30" id="aM"/><path fill="#a9afb8" d="M25-224v-37h50v37H25zM25 0v-190h50V0H25" id="aN"/><path fill="#a9afb8" d="M128 0H69L1-190h53L99-40l48-150h52" id="aO"/><path fill="#a9afb8" d="M123 10C108 53 80 86 19 72V37c35 8 53-11 59-39L3-190h52l48 148c12-52 28-100 44-148h51" id="aP"/><g id="i"><use transform="matrix(0.0728395061728395,0,0,0.0728395061728395,0,0)" xlink:href="#aK"/><use transform="matrix(0.0728395061728395,0,0,0.0728395061728395,18.86543209876543,0)" xlink:href="#aL"/><use transform="matrix(0.0728395061728395,0,0,0.0728395061728395,33.43333333333333,0)" xlink:href="#aM"/><use transform="matrix(0.0728395061728395,0,0,0.0728395061728395,42.10123456790124,0)" xlink:href="#aN"/><use transform="matrix(0.0728395061728395,0,0,0.0728395061728395,49.38518518518518,0)" xlink:href="#aO"/><use transform="matrix(0.0728395061728395,0,0,0.0728395061728395,63.95308641975308,0)" xlink:href="#aN"/><use transform="matrix(0.0728395061728395,0,0,0.0728395061728395,71.23703703703703,0)" xlink:href="#aM"/><use transform="matrix(0.0728395061728395,0,0,0.0728395061728395,79.90493827160493,0)" xlink:href="#aP"/></g><path fill="#a9afb8" d="M24-248c120-7 223 5 221 122C244-46 201 0 124 0H24v-248zM76-40c74 7 117-18 117-86 0-67-45-88-117-82v168" id="aQ"/><path fill="#a9afb8" d="M133-34C117-15 103 5 69 4 32 3 11-16 11-54c-1-60 55-63 116-61 1-26-3-47-28-47-18 1-26 9-28 27l-52-2c7-38 36-58 82-57s74 22 75 68l1 82c-1 14 12 18 25 15v27c-30 8-71 5-69-32zm-48 3c29 0 43-24 42-57-32 0-66-3-65 30 0 17 8 27 23 27" id="aR"/><path fill="#a9afb8" d="M195-6C206 82 75 100 31 46c-4-6-6-13-8-21l49-6c3 16 16 24 34 25 40 0 42-37 40-79-11 22-30 35-61 35-53 0-70-43-70-97 0-56 18-96 73-97 30 0 46 14 59 34l2-30h47zm-90-29c32 0 41-27 41-63 0-35-9-62-40-62-32 0-39 29-40 63 0 36 9 62 39 62" id="aS"/><path fill="#a9afb8" d="M135-150c-39-12-60 13-60 57V0H25l-1-190h47c2 13-1 29 3 40 6-28 27-53 61-41v41" id="aT"/><path fill="#a9afb8" d="M220-157c-53 9-28 100-34 157h-49v-107c1-27-5-49-29-50C55-147 81-57 75 0H25l-1-190h47c2 12-1 28 3 38 10-53 101-56 108 0 13-22 24-43 59-42 82 1 51 116 57 194h-49v-107c-1-25-5-48-29-50" id="aU"/><g id="j"><use transform="matrix(0.0728395061728395,0,0,0.0728395061728395,0,0)" xlink:href="#aQ"/><use transform="matrix(0.0728395061728395,0,0,0.0728395061728395,18.86543209876543,0)" xlink:href="#aN"/><use transform="matrix(0.0728395061728395,0,0,0.0728395061728395,26.14938271604938,0)" xlink:href="#aR"/><use transform="matrix(0.0728395061728395,0,0,0.0728395061728395,40.717283950617286,0)" xlink:href="#aS"/><use transform="matrix(0.0728395061728395,0,0,0.0728395061728395,56.66913580246913,0)" xlink:href="#aT"/><use transform="matrix(0.0728395061728395,0,0,0.0728395061728395,66.86666666666666,0)" xlink:href="#aR"/><use transform="matrix(0.0728395061728395,0,0,0.0728395061728395,81.43456790123457,0)" xlink:href="#aU"/></g><path fill="#a9afb8" d="M121-226c-27-7-43 5-38 36h38v33H83V0H34v-157H6v-33h28c-9-59 32-81 87-68v32" id="aV"/><path fill="#a9afb8" d="M110-194c64 0 96 36 96 99 0 64-35 99-97 99-61 0-95-36-95-99 0-62 34-99 96-99zm-1 164c35 0 45-28 45-65 0-40-10-65-43-65-34 0-45 26-45 65 0 36 10 65 43 65" id="aW"/><g id="k"><use transform="matrix(0.0728395061728395,0,0,0.0728395061728395,0,0)" xlink:href="#aV"/><use transform="matrix(0.0728395061728395,0,0,0.0728395061728395,8.667901234567902,0)" xlink:href="#aW"/><use transform="matrix(0.0728395061728395,0,0,0.0728395061728395,24.619753086419752,0)" xlink:href="#aT"/></g><path fill="#a9afb8" d="M135-194c87-1 58 113 63 194h-50c-7-57 23-157-34-157-59 0-34 97-39 157H25l-1-190h47c2 12-1 28 3 38 12-26 28-41 61-42" id="aX"/><g id="l"><use transform="matrix(0.0728395061728395,0,0,0.0728395061728395,0,0)" xlink:href="#aQ"/><use transform="matrix(0.0728395061728395,0,0,0.0728395061728395,18.86543209876543,0)" xlink:href="#aP"/><use transform="matrix(0.0728395061728395,0,0,0.0728395061728395,33.43333333333333,0)" xlink:href="#aX"/><use transform="matrix(0.0728395061728395,0,0,0.0728395061728395,49.38518518518518,0)" xlink:href="#aR"/><use transform="matrix(0.0728395061728395,0,0,0.0728395061728395,63.95308641975308,0)" xlink:href="#aU"/><use transform="matrix(0.0728395061728395,0,0,0.0728395061728395,87.26172839506172,0)" xlink:href="#aN"/><use transform="matrix(0.0728395061728395,0,0,0.0728395061728395,94.54567901234567,0)" xlink:href="#aL"/></g><path fill="#a9afb8" d="M136-208V0H84v-208H4v-40h212v40h-80" id="aY"/><path fill="#a9afb8" d="M185-48c-13 30-37 53-82 52C43 2 14-33 14-96s30-98 90-98c62 0 83 45 84 108H66c0 31 8 55 39 56 18 0 30-7 34-22zm-45-69c5-46-57-63-70-21-2 6-4 13-4 21h74" id="aZ"/><g id="m"><use transform="matrix(0.0728395061728395,0,0,0.0728395061728395,0,0)" xlink:href="#aY"/><use transform="matrix(0.0728395061728395,0,0,0.0728395061728395,13.985185185185184,0)" xlink:href="#aR"/><use transform="matrix(0.0728395061728395,0,0,0.0728395061728395,28.553086419753086,0)" xlink:href="#aT"/><use transform="matrix(0.0728395061728395,0,0,0.0728395061728395,38.75061728395062,0)" xlink:href="#aS"/><use transform="matrix(0.0728395061728395,0,0,0.0728395061728395,54.70246913580247,0)" xlink:href="#aZ"/><use transform="matrix(0.0728395061728395,0,0,0.0728395061728395,69.27037037037037,0)" xlink:href="#aM"/><use transform="matrix(0.0728395061728395,0,0,0.0728395061728395,77.9382716049383,0)" xlink:href="#aN"/><use transform="matrix(0.0728395061728395,0,0,0.0728395061728395,85.22222222222221,0)" xlink:href="#aX"/><use transform="matrix(0.0728395061728395,0,0,0.0728395061728395,101.17407407407408,0)" xlink:href="#aS"/></g><path fill="#a9afb8" d="M117-194c89-4 53 116 60 194h-32v-121c0-31-8-49-39-48C34-167 62-67 57 0H25l-1-190h30c1 10-1 24 2 32 11-22 29-35 61-36" id="ba"/><path fill="#a9afb8" d="M141-36C126-15 110 5 73 4 37 3 15-17 15-53c-1-64 63-63 125-63 3-35-9-54-41-54-24 1-41 7-42 31l-33-3c5-37 33-52 76-52 45 0 72 20 72 64v82c-1 20 7 32 28 27v20c-31 9-61-2-59-35zM48-53c0 20 12 33 32 33 41-3 63-29 60-74-43 2-92-5-92 41" id="bb"/><path fill="#a9afb8" d="M59-47c-2 24 18 29 38 22v24C64 9 27 4 27-40v-127H5v-23h24l9-43h21v43h35v23H59v120" id="bc"/><path fill="#a9afb8" d="M106-169C34-169 62-67 57 0H25v-261h32l-1 103c12-21 28-36 61-36 89 0 53 116 60 194h-32v-121c2-32-8-49-39-48" id="bd"/><g id="n"><use transform="matrix(0.04248971193415638,0,0,0.04248971193415638,0,0)" xlink:href="#ba"/><use transform="matrix(0.04248971193415638,0,0,0.04248971193415638,8.497942386831275,0)" xlink:href="#bb"/><use transform="matrix(0.04248971193415638,0,0,0.04248971193415638,16.99588477366255,0)" xlink:href="#bc"/><use transform="matrix(0.04248971193415638,0,0,0.04248971193415638,21.244855967078188,0)" xlink:href="#bd"/><use transform="matrix(0.04248971193415638,0,0,0.04248971193415638,29.742798353909464,0)" xlink:href="#bb"/><use transform="matrix(0.04248971193415638,0,0,0.04248971193415638,38.24074074074074,0)" xlink:href="#ba"/></g><path fill="#a9afb8" d="M100-194c62-1 85 37 85 99 1 63-27 99-86 99S16-35 15-95c0-66 28-99 85-99zM99-20c44 1 53-31 53-75 0-43-8-75-51-75s-53 32-53 75 10 74 51 75" id="be"/><path fill="#a9afb8" d="M84 4C-5 8 30-112 23-190h32v120c0 31 7 50 39 49 72-2 45-101 50-169h31l1 190h-30c-1-10 1-25-2-33-11 22-28 36-60 37" id="bf"/><path fill="#a9afb8" d="M114-163C36-179 61-72 57 0H25l-1-190h30c1 12-1 29 2 39 6-27 23-49 58-41v29" id="bg"/><g id="o"><use transform="matrix(0.04248971193415638,0,0,0.04248971193415638,0,0)" xlink:href="#bc"/><use transform="matrix(0.04248971193415638,0,0,0.04248971193415638,4.248971193415637,0)" xlink:href="#be"/><use transform="matrix(0.04248971193415638,0,0,0.04248971193415638,12.746913580246911,0)" xlink:href="#bf"/><use transform="matrix(0.04248971193415638,0,0,0.04248971193415638,21.244855967078188,0)" xlink:href="#bg"/><use transform="matrix(0.04248971193415638,0,0,0.04248971193415638,26.301131687242798,0)" xlink:href="#ba"/><use transform="matrix(0.04248971193415638,0,0,0.04248971193415638,34.79907407407407,0)" xlink:href="#bb"/><use transform="matrix(0.04248971193415638,0,0,0.04248971193415638,43.29701646090535,0)" xlink:href="#ba"/><use transform="matrix(0.04248971193415638,0,0,0.04248971193415638,51.79495884773662,0)" xlink:href="#bc"/></g><path fill="#a9afb8" d="M32 76v-337h29V76H32" id="bh"/><use transform="matrix(0.04248971193415638,0,0,0.04248971193415638,0,0)" xlink:href="#bh" id="p"/><path fill="#a9afb8" d="M240 0l2-218c-23 76-54 145-80 218h-23L58-218 59 0H30v-248h44l77 211c21-75 51-140 76-211h43V0h-30" id="bi"/><path fill="#a9afb8" d="M179-190L93 31C79 59 56 82 12 73V49c39 6 53-20 64-50L1-190h34L92-34l54-156h33" id="bj"/><g id="q"><use transform="matrix(0.04248971193415638,0,0,0.04248971193415638,0,0)" xlink:href="#bi"/><use transform="matrix(0.04248971193415638,0,0,0.04248971193415638,12.704423868312757,0)" xlink:href="#bb"/><use transform="matrix(0.04248971193415638,0,0,0.04248971193415638,21.20236625514403,0)" xlink:href="#bj"/></g><path fill="#a9afb8" d="M155-56V0h-30v-56H8v-25l114-167h33v167h35v25h-35zm-30-156c-27 46-58 90-88 131h88v-131" id="bk"/><path fill="#a9afb8" d="M68-38c1 34 0 65-14 84H32c9-13 17-26 17-46H33v-38h35" id="bl"/><g id="r"><use transform="matrix(0.04248971193415638,0,0,0.04248971193415638,0,0)" xlink:href="#bk"/><use transform="matrix(0.04248971193415638,0,0,0.04248971193415638,8.497942386831275,0)" xlink:href="#bl"/></g><path fill="#a9afb8" d="M101-251c82-7 93 87 43 132L82-64C71-53 59-42 53-27h129V0H18c2-99 128-94 128-182 0-28-16-43-45-43s-46 15-49 41l-32-3c6-41 34-60 81-64" id="bm"/><path fill="#a9afb8" d="M101-251c68 0 85 55 85 127S166 4 100 4C33 4 14-52 14-124c0-73 17-127 87-127zm-1 229c47 0 54-49 54-102s-4-102-53-102c-51 0-55 48-55 102 0 53 5 102 54 102" id="bn"/><g id="s"><use transform="matrix(0.04248971193415638,0,0,0.04248971193415638,0,0)" xlink:href="#bm"/><use transform="matrix(0.04248971193415638,0,0,0.04248971193415638,8.497942386831275,0)" xlink:href="#bn"/><use transform="matrix(0.04248971193415638,0,0,0.04248971193415638,16.99588477366255,0)" xlink:href="#bm"/><use transform="matrix(0.04248971193415638,0,0,0.04248971193415638,25.493827160493822,0)" xlink:href="#bm"/></g><path fill="#282c33" d="M26 75v-336h71v23H56V52h41v23H26" id="bo"/><path fill="#282c33" d="M85-194c31 0 48 13 60 33l-1-100h32l1 261h-30c-2-10 0-23-3-31C134-8 116 4 85 4 32 4 16-35 15-94c0-66 23-100 70-100zm9 24c-40 0-46 34-46 75 0 40 6 74 45 74 42 0 51-32 51-76 0-42-9-74-50-73" id="bp"/><path fill="#282c33" d="M179-190L93 31C79 59 56 82 12 73V49c39 6 53-20 64-50L1-190h34L92-34l54-156h33" id="bq"/><path fill="#282c33" d="M117-194c89-4 53 116 60 194h-32v-121c0-31-8-49-39-48C34-167 62-67 57 0H25l-1-190h30c1 10-1 24 2 32 11-22 29-35 61-36" id="br"/><path fill="#282c33" d="M141-36C126-15 110 5 73 4 37 3 15-17 15-53c-1-64 63-63 125-63 3-35-9-54-41-54-24 1-41 7-42 31l-33-3c5-37 33-52 76-52 45 0 72 20 72 64v82c-1 20 7 32 28 27v20c-31 9-61-2-59-35zM48-53c0 20 12 33 32 33 41-3 63-29 60-74-43 2-92-5-92 41" id="bs"/><path fill="#282c33" d="M210-169c-67 3-38 105-44 169h-31v-121c0-29-5-50-35-48C34-165 62-65 56 0H25l-1-190h30c1 10-1 24 2 32 10-44 99-50 107 0 11-21 27-35 58-36 85-2 47 119 55 194h-31v-121c0-29-5-49-35-48" id="bt"/><path fill="#282c33" d="M24-231v-30h32v30H24zM24 0v-190h32V0H24" id="bu"/><path fill="#282c33" d="M96-169c-40 0-48 33-48 73s9 75 48 75c24 0 41-14 43-38l32 2c-6 37-31 61-74 61-59 0-76-41-82-99-10-93 101-131 147-64 4 7 5 14 7 22l-32 3c-4-21-16-35-41-35" id="bv"/><g id="t"><use transform="matrix(0.052725256688443106,0,0,0.052725256688443106,0,0)" xlink:href="#bo"/><use transform="matrix(0.052725256688443106,0,0,0.052725256688443106,5.2725256688443105,0)" xlink:href="#bp"/><use transform="matrix(0.052725256688443106,0,0,0.052725256688443106,15.817577006532932,0)" xlink:href="#bq"/><use transform="matrix(0.052725256688443106,0,0,0.052725256688443106,25.308123210452692,0)" xlink:href="#br"/><use transform="matrix(0.052725256688443106,0,0,0.052725256688443106,35.85317454814131,0)" xlink:href="#bs"/><use transform="matrix(0.052725256688443106,0,0,0.052725256688443106,46.39822588582993,0)" xlink:href="#bt"/><use transform="matrix(0.052725256688443106,0,0,0.052725256688443106,62.16307763567442,0)" xlink:href="#bu"/><use transform="matrix(0.052725256688443106,0,0,0.052725256688443106,66.32837291406142,0)" xlink:href="#bv"/></g><path fill="#282c33" d="M59-47c-2 24 18 29 38 22v24C64 9 27 4 27-40v-127H5v-23h24l9-43h21v43h35v23H59v120" id="bw"/><path fill="#282c33" d="M114-163C36-179 61-72 57 0H25l-1-190h30c1 12-1 29 2 39 6-27 23-49 58-41v29" id="bx"/><path fill="#282c33" d="M177-190C167-65 218 103 67 71c-23-6-38-20-44-43l32-5c15 47 100 32 89-28v-30C133-14 115 1 83 1 29 1 15-40 15-95c0-56 16-97 71-98 29-1 48 16 59 35 1-10 0-23 2-32h30zM94-22c36 0 50-32 50-73 0-42-14-75-50-75-39 0-46 34-46 75s6 73 46 73" id="by"/><path fill="#282c33" d="M100-194c63 0 86 42 84 106H49c0 40 14 67 53 68 26 1 43-12 49-29l28 8c-11 28-37 45-77 45C44 4 14-33 15-96c1-61 26-98 85-98zm52 81c6-60-76-77-97-28-3 7-6 17-6 28h103" id="bz"/><path fill="#282c33" d="M3 75V52h41v-290H3v-23h71V75H3" id="bA"/><g id="u"><use transform="matrix(0.052725256688443106,0,0,0.052725256688443106,0,0)" xlink:href="#bw"/><use transform="matrix(0.052725256688443106,0,0,0.052725256688443106,5.2725256688443105,0)" xlink:href="#bs"/><use transform="matrix(0.052725256688443106,0,0,0.052725256688443106,15.817577006532932,0)" xlink:href="#bx"/><use transform="matrix(0.052725256688443106,0,0,0.052725256688443106,22.091882552457662,0)" xlink:href="#by"/><use transform="matrix(0.052725256688443106,0,0,0.052725256688443106,32.63693389014628,0)" xlink:href="#bz"/><use transform="matrix(0.052725256688443106,0,0,0.052725256688443106,43.1819852278349,0)" xlink:href="#bw"/><use transform="matrix(0.052725256688443106,0,0,0.052725256688443106,48.45451089667921,0)" xlink:href="#bu"/><use transform="matrix(0.052725256688443106,0,0,0.052725256688443106,52.619806175066216,0)" xlink:href="#br"/><use transform="matrix(0.052725256688443106,0,0,0.052725256688443106,63.16485751275484,0)" xlink:href="#by"/><use transform="matrix(0.052725256688443106,0,0,0.052725256688443106,73.70990885044345,0)" xlink:href="#bA"/></g><g id="v"><use transform="matrix(0.0563251481234059,0,0,0.0563251481234059,0,0)" xlink:href="#ap"/><use transform="matrix(0.0563251481234059,0,0,0.0563251481234059,14.58821336396213,0)" xlink:href="#aq"/><use transform="matrix(0.0563251481234059,0,0,0.0563251481234059,21.29090599064743,0)" xlink:href="#ar"/><use transform="matrix(0.0563251481234059,0,0,0.0563251481234059,32.55593561532861,0)" xlink:href="#as"/><use transform="matrix(0.0563251481234059,0,0,0.0563251481234059,43.820965240009784,0)" xlink:href="#at"/><use transform="matrix(0.0563251481234059,0,0,0.0563251481234059,49.45348005235037,0)" xlink:href="#ar"/><use transform="matrix(0.0563251481234059,0,0,0.0563251481234059,60.71850967703155,0)" xlink:href="#aG"/></g><g id="w"><use transform="matrix(0.060025163186771674,0,0,0.060025163186771674,0,0)" xlink:href="#aB"/><use transform="matrix(0.060025163186771674,0,0,0.060025163186771674,14.406039164825202,0)" xlink:href="#at"/><use transform="matrix(0.060025163186771674,0,0,0.060025163186771674,20.40855548350237,0)" xlink:href="#az"/><use transform="matrix(0.060025163186771674,0,0,0.060025163186771674,32.4135881208567,0)" xlink:href="#aq"/><use transform="matrix(0.060025163186771674,0,0,0.060025163186771674,39.55658254008253,0)" xlink:href="#ar"/></g><path fill="#fff" d="M266 0h-40l-56-210L115 0H75L2-248h35L96-30l15-64 43-154h32l59 218 59-218h35" id="bB"/><path fill="#fff" d="M106-169C34-169 62-67 57 0H25v-261h32l-1 103c12-21 28-36 61-36 89 0 53 116 60 194h-32v-121c2-32-8-49-39-48" id="bC"/><g id="x"><use transform="matrix(0.060025163186771674,0,0,0.060025163186771674,0,0)" xlink:href="#bB"/><use transform="matrix(0.060025163186771674,0,0,0.060025163186771674,19.568203198887566,0)" xlink:href="#as"/><use transform="matrix(0.060025163186771674,0,0,0.060025163186771674,31.5732358362419,0)" xlink:href="#at"/><use transform="matrix(0.060025163186771674,0,0,0.060025163186771674,37.575752154919066,0)" xlink:href="#aD"/><use transform="matrix(0.060025163186771674,0,0,0.060025163186771674,48.380281528537964,0)" xlink:href="#bC"/><use transform="matrix(0.060025163186771674,0,0,0.060025163186771674,60.3853141658923,0)" xlink:href="#ar"/><use transform="matrix(0.060025163186771674,0,0,0.060025163186771674,72.39034680324663,0)" xlink:href="#aq"/></g><path fill="#fff" d="M141 0L90-78 38 0H4l68-98-65-92h35l48 74 47-74h35l-64 92 68 98h-35" id="bD"/><g id="y"><use transform="matrix(0.060025163186771674,0,0,0.060025163186771674,0,0)" xlink:href="#ap"/><use transform="matrix(0.060025163186771674,0,0,0.060025163186771674,15.546517265373863,0)" xlink:href="#az"/><use transform="matrix(0.060025163186771674,0,0,0.060025163186771674,27.551549902728198,0)" xlink:href="#aA"/><use transform="matrix(0.060025163186771674,0,0,0.060025163186771674,39.55658254008253,0)" xlink:href="#at"/><use transform="matrix(0.060025163186771674,0,0,0.060025163186771674,45.5590988587597,0)" xlink:href="#ar"/><use transform="matrix(0.060025163186771674,0,0,0.060025163186771674,57.56413149611403,0)" xlink:href="#bD"/><use transform="matrix(0.060025163186771674,0,0,0.060025163186771674,68.36866086973293,0)" xlink:href="#at"/><use transform="matrix(0.060025163186771674,0,0,0.060025163186771674,74.3711771884101,0)" xlink:href="#aE"/><use transform="matrix(0.060025163186771674,0,0,0.060025163186771674,80.37369350708727,0)" xlink:href="#ap"/><use transform="matrix(0.060025163186771674,0,0,0.060025163186771674,95.92021077246113,0)" xlink:href="#as"/><use transform="matrix(0.060025163186771674,0,0,0.060025163186771674,107.92524340981547,0)" xlink:href="#aA"/><use transform="matrix(0.060025163186771674,0,0,0.060025163186771674,119.9302760471698,0)" xlink:href="#aD"/><use transform="matrix(0.060025163186771674,0,0,0.060025163186771674,130.7348054207887,0)" xlink:href="#ar"/><use transform="matrix(0.060025163186771674,0,0,0.060025163186771674,142.73983805814302,0)" xlink:href="#aC"/></g><g id="z"><use transform="matrix(0.060025163186771674,0,0,0.060025163186771674,0,0)" xlink:href="#aB"/><use transform="matrix(0.060025163186771674,0,0,0.060025163186771674,14.406039164825202,0)" xlink:href="#ar"/><use transform="matrix(0.060025163186771674,0,0,0.060025163186771674,26.411071802179535,0)" xlink:href="#aC"/><use transform="matrix(0.060025163186771674,0,0,0.060025163186771674,31.153059693934498,0)" xlink:href="#ar"/><use transform="matrix(0.060025163186771674,0,0,0.060025163186771674,43.158092331288834,0)" xlink:href="#aD"/><use transform="matrix(0.060025163186771674,0,0,0.060025163186771674,53.96262170490773,0)" xlink:href="#at"/><use transform="matrix(0.060025163186771674,0,0,0.060025163186771674,59.9651380235849,0)" xlink:href="#az"/><use transform="matrix(0.060025163186771674,0,0,0.060025163186771674,71.97017066093923,0)" xlink:href="#aq"/></g><g id="A"><use transform="matrix(0.060025163186771674,0,0,0.060025163186771674,0,0)" xlink:href="#aH"/><use transform="matrix(0.060025163186771674,0,0,0.060025163186771674,12.365183616474965,0)" xlink:href="#aq"/><use transform="matrix(0.060025163186771674,0,0,0.060025163186771674,19.508178035700794,0)" xlink:href="#av"/><use transform="matrix(0.060025163186771674,0,0,0.060025163186771674,24.250165927455757,0)" xlink:href="#aI"/><use transform="matrix(0.060025163186771674,0,0,0.060025163186771674,36.255198564810094,0)" xlink:href="#aI"/><use transform="matrix(0.060025163186771674,0,0,0.060025163186771674,48.26023120216443,0)" xlink:href="#ar"/><use transform="matrix(0.060025163186771674,0,0,0.060025163186771674,60.26526383951876,0)" xlink:href="#aq"/></g><path fill="#fff" d="M233-177c-1 41-23 64-60 70L243 0h-38l-65-103H63V0H30v-248c88 3 205-21 203 71zM63-129c60-2 137 13 137-47 0-61-80-42-137-45v92" id="bE"/><g id="B"><use transform="matrix(0.060025163186771674,0,0,0.060025163186771674,0,0)" xlink:href="#bE"/><use transform="matrix(0.060025163186771674,0,0,0.060025163186771674,15.546517265373863,0)" xlink:href="#ar"/><use transform="matrix(0.060025163186771674,0,0,0.060025163186771674,27.551549902728198,0)" xlink:href="#aD"/><use transform="matrix(0.060025163186771674,0,0,0.060025163186771674,38.3560792763471,0)" xlink:href="#az"/><use transform="matrix(0.060025163186771674,0,0,0.060025163186771674,50.361111913701436,0)" xlink:href="#aA"/><use transform="matrix(0.060025163186771674,0,0,0.060025163186771674,62.36614455105577,0)" xlink:href="#aD"/><use transform="matrix(0.060025163186771674,0,0,0.060025163186771674,73.17067392467467,0)" xlink:href="#av"/><use transform="matrix(0.060025163186771674,0,0,0.060025163186771674,77.91266181642963,0)" xlink:href="#aC"/><use transform="matrix(0.060025163186771674,0,0,0.060025163186771674,82.65464970818459,0)" xlink:href="#ar"/></g><g id="C"><use transform="matrix(0.060025163186771674,0,0,0.060025163186771674,0,0)" xlink:href="#aH"/><use transform="matrix(0.060025163186771674,0,0,0.060025163186771674,10.74450421043213,0)" xlink:href="#as"/><use transform="matrix(0.060025163186771674,0,0,0.060025163186771674,22.749536847786466,0)" xlink:href="#aq"/><use transform="matrix(0.060025163186771674,0,0,0.060025163186771674,29.892531267012295,0)" xlink:href="#aI"/><use transform="matrix(0.060025163186771674,0,0,0.060025163186771674,41.89756390436663,0)" xlink:href="#ar"/><use transform="matrix(0.060025163186771674,0,0,0.060025163186771674,53.90259654172096,0)" xlink:href="#at"/><use transform="matrix(0.060025163186771674,0,0,0.060025163186771674,59.90511286039813,0)" xlink:href="#aw"/></g><g id="D"><use transform="matrix(0.060025163186771674,0,0,0.060025163186771674,0,0)" xlink:href="#aJ"/><use transform="matrix(0.060025163186771674,0,0,0.060025163186771674,12.005032637354335,0)" xlink:href="#av"/><use transform="matrix(0.060025163186771674,0,0,0.060025163186771674,16.747020529109296,0)" xlink:href="#aw"/><use transform="matrix(0.060025163186771674,0,0,0.060025163186771674,27.551549902728198,0)" xlink:href="#at"/></g><path fill="#fff" d="M18-150v-26h174v26H18zm0 90v-26h174v26H18" id="bF"/><path fill="#fff" d="M18-27v-27l151-64-151-65v-27l175 74v36" id="bG"/><g id="E"><use transform="matrix(0.060025163186771674,0,0,0.060025163186771674,0,0)" xlink:href="#bF"/><use transform="matrix(0.060025163186771674,0,0,0.060025163186771674,12.605284269222052,0)" xlink:href="#bG"/></g><g id="F"><use transform="matrix(0.060025163186771674,0,0,0.060025163186771674,0,0)" xlink:href="#ap"/><use transform="matrix(0.060025163186771674,0,0,0.060025163186771674,15.546517265373863,0)" xlink:href="#aC"/><use transform="matrix(0.060025163186771674,0,0,0.060025163186771674,20.288505157128824,0)" xlink:href="#ax"/><use transform="matrix(0.060025163186771674,0,0,0.060025163186771674,32.29353779448316,0)" xlink:href="#aw"/><use transform="matrix(0.060025163186771674,0,0,0.060025163186771674,43.09806716810206,0)" xlink:href="#at"/><use transform="matrix(0.060025163186771674,0,0,0.060025163186771674,49.10058348677923,0)" xlink:href="#ar"/><use transform="matrix(0.060025163186771674,0,0,0.060025163186771674,61.10561612413356,0)" xlink:href="#aq"/></g><path fill="#fff" d="M30 0v-248h187v28H63v79h144v27H63v87h162V0H30" id="bH"/><path fill="#fff" d="M145-31C134-9 116 4 85 4 32 4 16-35 15-94c0-59 17-99 70-100 32-1 48 14 60 33 0-11-1-24 2-32h30l-1 268h-32zM93-21c41 0 51-33 51-76s-8-73-50-73c-40 0-46 35-46 75s5 74 45 74" id="bI"/><g id="G"><use transform="matrix(0.060025163186771674,0,0,0.060025163186771674,0,0)" xlink:href="#bH"/><use transform="matrix(0.060025163186771674,0,0,0.060025163186771674,14.406039164825202,0)" xlink:href="#aA"/><use transform="matrix(0.060025163186771674,0,0,0.060025163186771674,26.411071802179535,0)" xlink:href="#bI"/><use transform="matrix(0.060025163186771674,0,0,0.060025163186771674,38.41610443953387,0)" xlink:href="#ax"/><use transform="matrix(0.060025163186771674,0,0,0.060025163186771674,50.4211370768882,0)" xlink:href="#ar"/><use transform="matrix(0.060025163186771674,0,0,0.060025163186771674,62.426169714242526,0)" xlink:href="#ax"/><use transform="matrix(0.060025163186771674,0,0,0.060025163186771674,74.43120235159687,0)" xlink:href="#ar"/></g><g id="H"><use transform="matrix(0.060025163186771674,0,0,0.060025163186771674,0,0)" xlink:href="#aA"/><use transform="matrix(0.060025163186771674,0,0,0.060025163186771674,12.005032637354335,0)" xlink:href="#ar"/><use transform="matrix(0.060025163186771674,0,0,0.060025163186771674,24.01006527470867,0)" xlink:href="#bD"/><use transform="matrix(0.060025163186771674,0,0,0.060025163186771674,34.81459464832757,0)" xlink:href="#at"/></g><g id="I"><use transform="matrix(0.060025163186771674,0,0,0.060025163186771674,0,0)" xlink:href="#bE"/><use transform="matrix(0.060025163186771674,0,0,0.060025163186771674,15.546517265373863,0)" xlink:href="#ar"/><use transform="matrix(0.060025163186771674,0,0,0.060025163186771674,27.551549902728198,0)" xlink:href="#aD"/><use transform="matrix(0.060025163186771674,0,0,0.060025163186771674,38.3560792763471,0)" xlink:href="#az"/><use transform="matrix(0.060025163186771674,0,0,0.060025163186771674,50.361111913701436,0)" xlink:href="#aA"/><use transform="matrix(0.060025163186771674,0,0,0.060025163186771674,62.36614455105577,0)" xlink:href="#aD"/><use transform="matrix(0.060025163186771674,0,0,0.060025163186771674,73.17067392467467,0)" xlink:href="#av"/><use transform="matrix(0.060025163186771674,0,0,0.060025163186771674,77.91266181642963,0)" xlink:href="#aC"/><use transform="matrix(0.060025163186771674,0,0,0.060025163186771674,82.65464970818459,0)" xlink:href="#ar"/></g><path fill="#282c33" d="M135-143c-3-34-86-38-87 0 15 53 115 12 119 90S17 21 10-45l28-5c4 36 97 45 98 0-10-56-113-15-118-90-4-57 82-63 122-42 12 7 21 19 24 35" id="bJ"/><g id="J"><use transform="matrix(0.052725256688443106,0,0,0.052725256688443106,0,0)" xlink:href="#bo"/><use transform="matrix(0.052725256688443106,0,0,0.052725256688443106,5.2725256688443105,0)" xlink:href="#bJ"/><use transform="matrix(0.052725256688443106,0,0,0.052725256688443106,14.763071872764069,0)" xlink:href="#bw"/><use transform="matrix(0.052725256688443106,0,0,0.052725256688443106,20.03559754160838,0)" xlink:href="#bs"/><use transform="matrix(0.052725256688443106,0,0,0.052725256688443106,30.580648879297,0)" xlink:href="#bw"/><use transform="matrix(0.052725256688443106,0,0,0.052725256688443106,35.85317454814131,0)" xlink:href="#bu"/><use transform="matrix(0.052725256688443106,0,0,0.052725256688443106,40.01846982652832,0)" xlink:href="#bv"/></g><g id="K"><use transform="matrix(0.060025163186771674,0,0,0.060025163186771674,0,0)" xlink:href="#bB"/><use transform="matrix(0.060025163186771674,0,0,0.060025163186771674,19.568203198887566,0)" xlink:href="#as"/><use transform="matrix(0.060025163186771674,0,0,0.060025163186771674,31.5732358362419,0)" xlink:href="#av"/><use transform="matrix(0.060025163186771674,0,0,0.060025163186771674,36.31522372799686,0)" xlink:href="#at"/></g><path fill="#282c33" d="M24 0v-261h32V0H24" id="bK"/><g id="L"><use transform="matrix(0.05272525668844312,0,0,0.05272525668844312,0,0)" xlink:href="#bo"/><use transform="matrix(0.05272525668844312,0,0,0.05272525668844312,5.272525668844312,0)" xlink:href="#bs"/><use transform="matrix(0.05272525668844312,0,0,0.05272525668844312,15.817577006532936,0)" xlink:href="#bK"/><use transform="matrix(0.05272525668844312,0,0,0.05272525668844312,19.982872284919942,0)" xlink:href="#bK"/></g><g id="M"><use transform="matrix(0.05272525668844312,0,0,0.05272525668844312,0,0)" xlink:href="#bv"/><use transform="matrix(0.05272525668844312,0,0,0.05272525668844312,9.490546203919761,0)" xlink:href="#bs"/><use transform="matrix(0.05272525668844312,0,0,0.05272525668844312,20.035597541608386,0)" xlink:href="#bJ"/><use transform="matrix(0.05272525668844312,0,0,0.05272525668844312,29.52614374552815,0)" xlink:href="#bz"/><use transform="matrix(0.05272525668844312,0,0,0.05272525668844312,40.07119508321677,0)" xlink:href="#bJ"/><use transform="matrix(0.05272525668844312,0,0,0.05272525668844312,49.561741287136535,0)" xlink:href="#bA"/></g><g id="N"><use transform="matrix(0.060025163186771674,0,0,0.060025163186771674,0,0)" xlink:href="#au"/><use transform="matrix(0.060025163186771674,0,0,0.060025163186771674,15.546517265373863,0)" xlink:href="#ar"/><use transform="matrix(0.060025163186771674,0,0,0.060025163186771674,27.551549902728198,0)" xlink:href="#aC"/><use transform="matrix(0.060025163186771674,0,0,0.060025163186771674,32.29353779448316,0)" xlink:href="#ar"/><use transform="matrix(0.060025163186771674,0,0,0.060025163186771674,44.29857043183749,0)" xlink:href="#at"/><use transform="matrix(0.060025163186771674,0,0,0.060025163186771674,50.301086750514656,0)" xlink:href="#ar"/></g><g id="O"><use transform="matrix(0.060025163186771674,0,0,0.060025163186771674,0,0)" xlink:href="#au"/><use transform="matrix(0.060025163186771674,0,0,0.060025163186771674,15.546517265373863,0)" xlink:href="#av"/><use transform="matrix(0.060025163186771674,0,0,0.060025163186771674,20.288505157128824,0)" xlink:href="#aw"/><use transform="matrix(0.060025163186771674,0,0,0.060025163186771674,31.093034530747726,0)" xlink:href="#aq"/><use transform="matrix(0.060025163186771674,0,0,0.060025163186771674,38.23602894997356,0)" xlink:href="#ax"/><use transform="matrix(0.060025163186771674,0,0,0.060025163186771674,50.24106158732789,0)" xlink:href="#ay"/><use transform="matrix(0.060025163186771674,0,0,0.060025163186771674,62.246094224682224,0)" xlink:href="#at"/><use transform="matrix(0.060025163186771674,0,0,0.060025163186771674,68.24861054335939,0)" xlink:href="#av"/><use transform="matrix(0.060025163186771674,0,0,0.060025163186771674,72.99059843511435,0)" xlink:href="#az"/><use transform="matrix(0.060025163186771674,0,0,0.060025163186771674,84.99563107246868,0)" xlink:href="#aA"/></g><path fill="#666" d="M62-99C39-31 123 0 170-40s38-139 58-208h34C234-144 253 4 115 4 49 4 18-43 31-112l26-136h34" id="bL"/><path fill="#666" d="M67-162c32-53 139-36 121 50C175-51 163 2 97 4 68 4 52-11 42-31 38 6 28 39 22 75H-9l50-265h29c-1 10 0 20-3 28zm89 36c0-26-10-43-35-43-54 0-67 50-69 103-1 29 14 45 42 46 53 0 62-58 62-106" id="bM"/><path fill="#666" d="M133-28C103 26-5 8 13-77c13-62 24-115 90-117 29-1 46 15 56 35l19-102h32L160 0h-30zM45-64c-2 27 10 43 35 43 54-1 69-50 69-103 0-29-15-46-42-46-53-1-58 58-62 106" id="bN"/><path fill="#666" d="M165-48c-4 18 1 34 23 27l-3 20c-29 8-62 0-52-35h-2C116-14 99 4 63 4 30 4 8-16 8-49c0-68 71-67 138-67 10-26 0-56-31-54-26 1-42 9-47 31l-32-5c8-67 160-71 144 15-5 28-9 54-15 81zM42-50c3 52 80 24 89-6 7-12 7-24 11-38-47 1-103-4-100 44" id="bO"/><path fill="#666" d="M51-54c-9 22 5 41 31 30L79-1C43 14 10-4 19-52l22-115H19l5-23h22l19-43h21l-9 43h35l-4 23H73" id="bP"/><path fill="#666" d="M111-194c62-3 86 47 72 106H45c-7 38 6 69 45 68 27-1 43-14 53-32l24 11C152-15 129 4 87 4 38 3 12-23 12-71c0-70 32-119 99-123zm44 81c14-66-71-72-95-28-4 8-8 17-11 28h106" id="bQ"/><g id="P"><use transform="matrix(0.060025163186771674,0,0,0.060025163186771674,0,0)" xlink:href="#bL"/><use transform="matrix(0.060025163186771674,0,0,0.060025163186771674,15.546517265373863,0)" xlink:href="#bM"/><use transform="matrix(0.060025163186771674,0,0,0.060025163186771674,27.551549902728198,0)" xlink:href="#bN"/><use transform="matrix(0.060025163186771674,0,0,0.060025163186771674,39.55658254008253,0)" xlink:href="#bO"/><use transform="matrix(0.060025163186771674,0,0,0.060025163186771674,51.56161517743686,0)" xlink:href="#bP"/><use transform="matrix(0.060025163186771674,0,0,0.060025163186771674,57.56413149611403,0)" xlink:href="#bQ"/></g><path fill="#666" d="M249-183c0 48-29 72-75 77L221 0h-36l-43-103H65L45 0H11l48-248c83 2 190-17 190 65zm-34 3c0-55-74-39-127-41l-18 92c63-1 145 13 145-51" id="bR"/><path fill="#666" d="M44-68c0 29 11 47 38 47 30 0 42-19 51-41l28 9C148-21 126 4 82 4 31 4 10-29 12-85c3-77 74-140 146-93 12 8 15 23 18 40l-31 5c-1-22-13-36-36-36-52 0-65 49-65 101" id="bS"/><path fill="#666" d="M30-147c31-64 166-65 159 27C183-49 158 1 86 4 9 8 1-88 30-147zM88-20c53 0 68-48 68-100 0-31-11-51-44-50-52 1-68 46-68 97 0 32 13 53 44 53" id="bT"/><path fill="#666" d="M67-158c22-48 132-52 116 29L158 0h-32l25-140c3-38-53-32-70-12C52-117 51-52 38 0H6l36-190h30" id="bU"/><path fill="#666" d="M50-231l6-30h32l-6 30H50zM6 0l37-190h31L37 0H6" id="bV"/><path fill="#666" d="M6 0l50-261h32L37 0H6" id="bW"/><g id="Q"><use transform="matrix(0.060025163186771674,0,0,0.060025163186771674,0,0)" xlink:href="#bR"/><use transform="matrix(0.060025163186771674,0,0,0.060025163186771674,15.546517265373863,0)" xlink:href="#bQ"/><use transform="matrix(0.060025163186771674,0,0,0.060025163186771674,27.551549902728198,0)" xlink:href="#bS"/><use transform="matrix(0.060025163186771674,0,0,0.060025163186771674,38.3560792763471,0)" xlink:href="#bT"/><use transform="matrix(0.060025163186771674,0,0,0.060025163186771674,50.361111913701436,0)" xlink:href="#bU"/><use transform="matrix(0.060025163186771674,0,0,0.060025163186771674,62.36614455105577,0)" xlink:href="#bS"/><use transform="matrix(0.060025163186771674,0,0,0.060025163186771674,73.17067392467467,0)" xlink:href="#bV"/><use transform="matrix(0.060025163186771674,0,0,0.060025163186771674,77.91266181642963,0)" xlink:href="#bW"/><use transform="matrix(0.060025163186771674,0,0,0.060025163186771674,82.65464970818459,0)" xlink:href="#bQ"/></g><path fill="#666" d="M11 0l48-248h34L50-27h125l-5 27H11" id="bX"/><g id="R"><use transform="matrix(0.060025163186771674,0,0,0.060025163186771674,0,0)" xlink:href="#bX"/><use transform="matrix(0.060025163186771674,0,0,0.060025163186771674,12.005032637354335,0)" xlink:href="#bT"/><use transform="matrix(0.060025163186771674,0,0,0.060025163186771674,24.01006527470867,0)" xlink:href="#bT"/><use transform="matrix(0.060025163186771674,0,0,0.060025163186771674,36.015097912063005,0)" xlink:href="#bM"/></g><g id="S"><use transform="matrix(0.060025163186771674,0,0,0.060025163186771674,0,0)" xlink:href="#bE"/><use transform="matrix(0.060025163186771674,0,0,0.060025163186771674,15.546517265373863,0)" xlink:href="#ax"/><use transform="matrix(0.060025163186771674,0,0,0.060025163186771674,27.551549902728198,0)" xlink:href="#aA"/></g><g id="T"><use transform="matrix(0.060025163186771674,0,0,0.060025163186771674,0,0)" xlink:href="#ap"/><use transform="matrix(0.060025163186771674,0,0,0.060025163186771674,15.546517265373863,0)" xlink:href="#as"/><use transform="matrix(0.060025163186771674,0,0,0.060025163186771674,27.551549902728198,0)" xlink:href="#aA"/><use transform="matrix(0.060025163186771674,0,0,0.060025163186771674,39.55658254008253,0)" xlink:href="#aD"/><use transform="matrix(0.060025163186771674,0,0,0.060025163186771674,50.361111913701436,0)" xlink:href="#ar"/><use transform="matrix(0.060025163186771674,0,0,0.060025163186771674,62.36614455105577,0)" xlink:href="#aC"/></g><path fill="#fff" d="M63-220v92h138v28H63V0H30v-248h175v28H63" id="bY"/><g id="U"><use transform="matrix(0.060025163186771674,0,0,0.060025163186771674,0,0)" xlink:href="#bY"/><use transform="matrix(0.060025163186771674,0,0,0.060025163186771674,13.145510737902997,0)" xlink:href="#ax"/><use transform="matrix(0.060025163186771674,0,0,0.060025163186771674,25.15054337525733,0)" xlink:href="#aA"/><use transform="matrix(0.060025163186771674,0,0,0.060025163186771674,37.15557601261167,0)" xlink:href="#aD"/></g><path fill="#333" d="M30-248c87 1 191-15 191 75 0 78-77 80-158 76V0H30v-248zm33 125c57 0 124 11 124-50 0-59-68-47-124-48v98" id="bZ"/><path fill="#333" d="M233-177c-1 41-23 64-60 70L243 0h-38l-65-103H63V0H30v-248c88 3 205-21 203 71zM63-129c60-2 137 13 137-47 0-61-80-42-137-45v92" id="ca"/><path fill="#333" d="M33-154v-36h34v36H33zM33 0v-36h34V0H33" id="cb"/><g id="V"><use transform="matrix(0.06172839506172839,0,0,0.06172839506172839,0,0)" xlink:href="#bZ"/><use transform="matrix(0.06172839506172839,0,0,0.06172839506172839,14.814814814814813,0)" xlink:href="#ca"/><use transform="matrix(0.06172839506172839,0,0,0.06172839506172839,30.80246913580247,0)" xlink:href="#cb"/></g><path fill="#333" d="M30-248c118-7 216 8 213 122C240-48 200 0 122 0H30v-248zM63-27c89 8 146-16 146-99s-60-101-146-95v194" id="cc"/><path fill="#333" d="M179-190L93 31C79 59 56 82 12 73V49c39 6 53-20 64-50L1-190h34L92-34l54-156h33" id="cd"/><path fill="#333" d="M117-194c89-4 53 116 60 194h-32v-121c0-31-8-49-39-48C34-167 62-67 57 0H25l-1-190h30c1 10-1 24 2 32 11-22 29-35 61-36" id="ce"/><path fill="#333" d="M141-36C126-15 110 5 73 4 37 3 15-17 15-53c-1-64 63-63 125-63 3-35-9-54-41-54-24 1-41 7-42 31l-33-3c5-37 33-52 76-52 45 0 72 20 72 64v82c-1 20 7 32 28 27v20c-31 9-61-2-59-35zM48-53c0 20 12 33 32 33 41-3 63-29 60-74-43 2-92-5-92 41" id="cf"/><path fill="#333" d="M210-169c-67 3-38 105-44 169h-31v-121c0-29-5-50-35-48C34-165 62-65 56 0H25l-1-190h30c1 10-1 24 2 32 10-44 99-50 107 0 11-21 27-35 58-36 85-2 47 119 55 194h-31v-121c0-29-5-49-35-48" id="cg"/><path fill="#333" d="M24-231v-30h32v30H24zM24 0v-190h32V0H24" id="ch"/><path fill="#333" d="M96-169c-40 0-48 33-48 73s9 75 48 75c24 0 41-14 43-38l32 2c-6 37-31 61-74 61-59 0-76-41-82-99-10-93 101-131 147-64 4 7 5 14 7 22l-32 3c-4-21-16-35-41-35" id="ci"/><g id="W"><use transform="matrix(0.06172839506172839,0,0,0.06172839506172839,0,0)" xlink:href="#cc"/><use transform="matrix(0.06172839506172839,0,0,0.06172839506172839,15.987654320987653,0)" xlink:href="#cd"/><use transform="matrix(0.06172839506172839,0,0,0.06172839506172839,27.098765432098766,0)" xlink:href="#ce"/><use transform="matrix(0.06172839506172839,0,0,0.06172839506172839,39.44444444444444,0)" xlink:href="#cf"/><use transform="matrix(0.06172839506172839,0,0,0.06172839506172839,51.79012345679012,0)" xlink:href="#cg"/><use transform="matrix(0.06172839506172839,0,0,0.06172839506172839,70.24691358024691,0)" xlink:href="#ch"/><use transform="matrix(0.06172839506172839,0,0,0.06172839506172839,75.12345679012346,0)" xlink:href="#ci"/></g><path fill="#333" d="M127-220V0H93v-220H8v-28h204v28h-85" id="cj"/><path fill="#333" d="M114-163C36-179 61-72 57 0H25l-1-190h30c1 12-1 29 2 39 6-27 23-49 58-41v29" id="ck"/><path fill="#333" d="M177-190C167-65 218 103 67 71c-23-6-38-20-44-43l32-5c15 47 100 32 89-28v-30C133-14 115 1 83 1 29 1 15-40 15-95c0-56 16-97 71-98 29-1 48 16 59 35 1-10 0-23 2-32h30zM94-22c36 0 50-32 50-73 0-42-14-75-50-75-39 0-46 34-46 75s6 73 46 73" id="cl"/><path fill="#333" d="M100-194c63 0 86 42 84 106H49c0 40 14 67 53 68 26 1 43-12 49-29l28 8c-11 28-37 45-77 45C44 4 14-33 15-96c1-61 26-98 85-98zm52 81c6-60-76-77-97-28-3 7-6 17-6 28h103" id="cm"/><path fill="#333" d="M59-47c-2 24 18 29 38 22v24C64 9 27 4 27-40v-127H5v-23h24l9-43h21v43h35v23H59v120" id="cn"/><g id="X"><use transform="matrix(0.06172839506172839,0,0,0.06172839506172839,0,0)" xlink:href="#cj"/><use transform="matrix(0.06172839506172839,0,0,0.06172839506172839,11.049382716049381,0)" xlink:href="#cf"/><use transform="matrix(0.06172839506172839,0,0,0.06172839506172839,23.39506172839506,0)" xlink:href="#ck"/><use transform="matrix(0.06172839506172839,0,0,0.06172839506172839,30.74074074074074,0)" xlink:href="#cl"/><use transform="matrix(0.06172839506172839,0,0,0.06172839506172839,43.08641975308642,0)" xlink:href="#cm"/><use transform="matrix(0.06172839506172839,0,0,0.06172839506172839,55.432098765432094,0)" xlink:href="#cn"/><use transform="matrix(0.06172839506172839,0,0,0.06172839506172839,61.60493827160494,0)" xlink:href="#ch"/><use transform="matrix(0.06172839506172839,0,0,0.06172839506172839,66.48148148148148,0)" xlink:href="#ce"/><use transform="matrix(0.06172839506172839,0,0,0.06172839506172839,78.82716049382717,0)" xlink:href="#cl"/></g><path fill="#333" d="M158-156l-14 65h45v19h-49L124 0h-19l15-72H56L41 0H22l15-72H2v-19h39l14-65H11v-19h48l15-71h20l-16 71h64l16-71h19l-16 71h37v19h-40zm-83 0L61-91h63l14-65H75" id="co"/><path fill="#333" d="M54-142c48-35 137-8 131 61C196 18 31 33 14-55l32-4c7 23 22 37 52 37 35-1 51-22 54-58 4-55-73-65-99-34H22l8-134h141v27H59" id="cp"/><path fill="#333" d="M101-251c82-7 93 87 43 132L82-64C71-53 59-42 53-27h129V0H18c2-99 128-94 128-182 0-28-16-43-45-43s-46 15-49 41l-32-3c6-41 34-60 81-64" id="cq"/><path fill="#333" d="M126-127c33 6 58 20 58 59 0 88-139 92-164 29-3-8-5-16-6-25l32-3c6 27 21 44 54 44 32 0 52-15 52-46 0-38-36-46-79-43v-28c39 1 72-4 72-42 0-27-17-43-46-43-28 0-47 15-49 41l-32-3c6-42 35-63 81-64 48-1 79 21 79 65 0 36-21 52-52 59" id="cr"/><g id="Y"><use transform="matrix(0.06172839506172839,0,0,0.06172839506172839,0,0)" xlink:href="#co"/><use transform="matrix(0.06172839506172839,0,0,0.06172839506172839,12.345679012345679,0)" xlink:href="#cp"/><use transform="matrix(0.06172839506172839,0,0,0.06172839506172839,24.691358024691358,0)" xlink:href="#cq"/><use transform="matrix(0.06172839506172839,0,0,0.06172839506172839,37.03703703703704,0)" xlink:href="#cr"/></g><g id="Z"><use transform="matrix(0.06172839506172839,0,0,0.06172839506172839,0,0)" xlink:href="#cc"/><use transform="matrix(0.06172839506172839,0,0,0.06172839506172839,15.987654320987653,0)" xlink:href="#cf"/><use transform="matrix(0.06172839506172839,0,0,0.06172839506172839,28.333333333333332,0)" xlink:href="#cn"/><use transform="matrix(0.06172839506172839,0,0,0.06172839506172839,34.50617283950617,0)" xlink:href="#cm"/><use transform="matrix(0.06172839506172839,0,0,0.06172839506172839,46.85185185185185,0)" xlink:href="#cb"/></g><path fill="#333" d="M205 0l-28-72H64L36 0H1l101-248h38L239 0h-34zm-38-99l-47-123c-12 45-31 82-46 123h93" id="cs"/><path fill="#333" d="M115-194c55 1 70 41 70 98S169 2 115 4C84 4 66-9 55-30l1 105H24l-1-265h31l2 30c10-21 28-34 59-34zm-8 174c40 0 45-34 45-75s-6-73-45-74c-42 0-51 32-51 76 0 43 10 73 51 73" id="ct"/><path fill="#333" d="M24 0v-261h32V0H24" id="cu"/><g id="aa"><use transform="matrix(0.06172839506172839,0,0,0.06172839506172839,0,0)" xlink:href="#cs"/><use transform="matrix(0.06172839506172839,0,0,0.06172839506172839,14.814814814814813,0)" xlink:href="#ct"/><use transform="matrix(0.06172839506172839,0,0,0.06172839506172839,27.160493827160494,0)" xlink:href="#ck"/><use transform="matrix(0.06172839506172839,0,0,0.06172839506172839,34.50617283950617,0)" xlink:href="#ch"/><use transform="matrix(0.06172839506172839,0,0,0.06172839506172839,39.382716049382715,0)" xlink:href="#cu"/></g><path fill="#333" d="M27 0v-27h64v-190l-56 39v-29l58-41h29v221h61V0H27" id="cv"/><path fill="#333" d="M155-56V0h-30v-56H8v-25l114-167h33v167h35v25h-35zm-30-156c-27 46-58 90-88 131h88v-131" id="cw"/><path fill="#333" d="M106-169C34-169 62-67 57 0H25v-261h32l-1 103c12-21 28-36 61-36 89 0 53 116 60 194h-32v-121c2-32-8-49-39-48" id="cx"/><g id="ab"><use transform="matrix(0.06172839506172839,0,0,0.06172839506172839,0,0)" xlink:href="#cv"/><use transform="matrix(0.06172839506172839,0,0,0.06172839506172839,12.345679012345679,0)" xlink:href="#cw"/><use transform="matrix(0.06172839506172839,0,0,0.06172839506172839,24.691358024691358,0)" xlink:href="#cn"/><use transform="matrix(0.06172839506172839,0,0,0.06172839506172839,30.864197530864196,0)" xlink:href="#cx"/></g><path fill="#333" d="M101-251c68 0 85 55 85 127S166 4 100 4C33 4 14-52 14-124c0-73 17-127 87-127zm-1 229c47 0 54-49 54-102s-4-102-53-102c-51 0-55 48-55 102 0 53 5 102 54 102" id="cy"/><g id="ac"><use transform="matrix(0.06172839506172839,0,0,0.06172839506172839,0,0)" xlink:href="#cq"/><use transform="matrix(0.06172839506172839,0,0,0.06172839506172839,12.345679012345679,0)" xlink:href="#cy"/><use transform="matrix(0.06172839506172839,0,0,0.06172839506172839,24.691358024691358,0)" xlink:href="#cq"/><use transform="matrix(0.06172839506172839,0,0,0.06172839506172839,37.03703703703704,0)" xlink:href="#cq"/></g></defs></g></svg>